# Blender v2.92.0 OBJ File: ''
# www.blender.org
mtllib fixed.mtl
o Cube.004
v -1.000000 1.000000 -1.000000
v -1.000000 1.000000 1.000000
v 1.000000 1.000000 1.000000
v 1.000000 -1.000000 1.000000
v -1.000000 -1.000000 1.000000
v -1.000000 -1.000000 -1.000000
v 1.000000 -1.000000 -1.000000
v 1.000000 1.000000 -1.000000
vt 0.500000 1.000000
vt 0.250000 1.000000
vt 0.250000 0.666667
vt 0.250000 0.333333
vt 0.000000 0.666667
vt 1.000000 0.333333
vt 1.000000 0.666667
vt 0.750000 0.666667
vt 0.500000 0.000000
vt 0.500000 0.333333
vt 0.500000 0.666667
vt 0.750000 0.333333
vt 0.000000 0.333333
vt 0.250000 0.000000
vn 0.0000 1.0000 0.0000
vn 0.0000 -0.0000 1.0000
vn -1.0000 0.0000 0.0000
vn 0.0000 -1.0000 -0.0000
vn 1.0000 0.0000 0.0000
vn 0.0000 0.0000 -1.0000
usemtl Material
s 1
f 1/1/1 2/2/1 3/3/1
f 4/4/2 3/3/2 2/5/2
f 5/6/3 2/7/3 1/8/3
f 6/9/4 7/10/4 4/4/4
f 7/10/5 8/11/5 3/3/5
f 6/12/6 1/8/6 8/11/6
f 7/10/6 6/12/6 8/11/6
f 6/12/3 5/6/3 1/8/3
f 5/13/2 4/4/2 2/5/2
f 4/4/5 7/10/5 3/3/5
f 8/11/1 1/1/1 3/3/1
f 5/14/4 6/9/4 4/4/4
