# Blender 3.5.0
# www.blender.org
mtllib octaeder.mtl
o Plane
v -100.000000 0.000000 100.000000
v 100.000000 0.000000 100.000000
v -100.000000 0.000000 -100.000000
v 100.000000 0.000000 -100.000000
v -0.221074 100.149582 -0.160524
v -0.069082 -105.279182 0.242287
vn 0.7084 -0.7058 -0.0000
vn -0.0000 -0.7060 0.7082
vn -0.7069 -0.7074 -0.0000
vn -0.0000 -0.7071 -0.7071
vn -0.0000 0.6878 -0.7259
vn 0.7253 0.6884 -0.0000
vn -0.0000 0.6896 0.7242
vn -0.7248 0.6889 -0.0000
vt 0.363423 0.440519
vt 0.363423 0.283952
vt 0.344785 0.000000
vt 0.363423 0.940519
vt 0.774970 0.000000
vt 0.344785 0.500000
vt 0.716996 0.440519
vt 0.353534 0.500000
vt 0.000000 0.000000
vt 0.353534 1.000000
vt 0.716996 0.940519
vt 0.000000 0.500000
vt 0.000000 0.749447
vt 0.717525 0.689966
vt 0.774970 0.440519
vt 0.363423 0.249827
s 0
f 1/1/1 3/7/1 5/14/1
f 3/8/2 4/10/2 5/13/2
f 4/11/3 2/4/3 5/14/3
f 2/4/4 1/1/4 5/14/4
f 2/5/5 6/15/5 1/2/5
f 1/3/6 6/16/6 3/9/6
f 3/9/7 6/16/7 4/12/7
f 4/12/8 6/16/8 2/6/8
